{
    "programs": [

    ],
    "streams": [
        {
            "index": 0,
            "codec_name": "h264",
            "codec_long_name": "H.264 / AVC / MPEG-4 AVC / MPEG-4 part 10",
            "profile": "High",
            "codec_type": "video",
            "codec_time_base": "11833/568200",
            "codec_tag_string": "avc1",
            "codec_tag": "0x31637661",
            "width": 1920,
            "height": 1080,
            "coded_width": 1920,
            "coded_height": 1080,
            "has_b_frames": 0,
            "sample_aspect_ratio": "0:1",
            "display_aspect_ratio": "0:1",
            "pix_fmt": "yuv420p",
            "level": 41,
            "color_range": "tv",
            "color_space": "bt709",
            "color_transfer": "bt709",
            "color_primaries": "bt709",
            "chroma_location": "left",
            "refs": 1,
            "is_avc": "true",
            "nal_length_size": "4",
            "r_frame_rate": "24/1",
            "avg_frame_rate": "284100/11833",
            "time_base": "1/600",
            "start_pts": 0,
            "start_time": "0:00:00.000000",
            "duration_ts": 23666,
            "duration": "0:00:39.443333",
            "bit_rate": "16283511",
            "bits_per_raw_sample": "8",
            "nb_frames": "947",
            "disposition": {
                "default": 1,
                "dub": 0,
                "original": 0,
                "comment": 0,
                "lyrics": 0,
                "karaoke": 0,
                "forced": 0,
                "hearing_impaired": 0,
                "visual_impaired": 0,
                "clean_effects": 0,
                "attached_pic": 0,
                "timed_thumbnails": 0
            },
            "tags": {
                "creation_time": "2017-01-29T21:25:03.000000Z",
                "language": "und",
                "handler_name": "Core Media Data Handler",
                "encoder": "H.264"
            }
        },
        {
            "index": 1,
            "codec_name": "aac",
            "codec_long_name": "AAC (Advanced Audio Coding)",
            "profile": "LC",
            "codec_type": "audio",
            "codec_time_base": "1/44100",
            "codec_tag_string": "mp4a",
            "codec_tag": "0x6134706d",
            "sample_fmt": "fltp",
            "sample_rate": "44100",
            "channels": 1,
            "channel_layout": "mono",
            "bits_per_sample": 0,
            "r_frame_rate": "0/0",
            "avg_frame_rate": "0/0",
            "time_base": "1/44100",
            "start_pts": -1,
            "start_time": "0:00:-0.000023",
            "duration_ts": 1739451,
            "duration": "0:00:39.443333",
            "bit_rate": "64905",
            "max_bit_rate": "64000",
            "nb_frames": "1701",
            "disposition": {
                "default": 1,
                "dub": 0,
                "original": 0,
                "comment": 0,
                "lyrics": 0,
                "karaoke": 0,
                "forced": 0,
                "hearing_impaired": 0,
                "visual_impaired": 0,
                "clean_effects": 0,
                "attached_pic": 0,
                "timed_thumbnails": 0
            },
            "tags": {
                "creation_time": "2017-01-29T21:25:03.000000Z",
                "language": "und",
                "handler_name": "Core Media Data Handler"
            }
        },
        {
            "index": 2,
            "codec_type": "data",
            "codec_tag_string": "mebx",
            "codec_tag": "0x7862656d",
            "r_frame_rate": "0/0",
            "avg_frame_rate": "0/0",
            "time_base": "1/600",
            "start_pts": 0,
            "start_time": "0:00:00.000000",
            "duration_ts": 23666,
            "duration": "0:00:39.443333",
            "bit_rate": "1",
            "nb_frames": "1",
            "disposition": {
                "default": 1,
                "dub": 0,
                "original": 0,
                "comment": 0,
                "lyrics": 0,
                "karaoke": 0,
                "forced": 0,
                "hearing_impaired": 0,
                "visual_impaired": 0,
                "clean_effects": 0,
                "attached_pic": 0,
                "timed_thumbnails": 0
            },
            "tags": {
                "creation_time": "2017-01-29T21:25:03.000000Z",
                "language": "und",
                "handler_name": "Core Media Data Handler"
            }
        },
        {
            "index": 3,
            "codec_type": "data",
            "codec_tag_string": "mebx",
            "codec_tag": "0x7862656d",
            "r_frame_rate": "0/0",
            "avg_frame_rate": "0/0",
            "time_base": "1/600",
            "start_pts": 0,
            "start_time": "0:00:00.000000",
            "duration_ts": 23666,
            "duration": "0:00:39.443333",
            "bit_rate": "2",
            "nb_frames": "1",
            "disposition": {
                "default": 1,
                "dub": 0,
                "original": 0,
                "comment": 0,
                "lyrics": 0,
                "karaoke": 0,
                "forced": 0,
                "hearing_impaired": 0,
                "visual_impaired": 0,
                "clean_effects": 0,
                "attached_pic": 0,
                "timed_thumbnails": 0
            },
            "tags": {
                "creation_time": "2017-01-29T21:25:03.000000Z",
                "language": "und",
                "handler_name": "Core Media Data Handler"
            }
        }
    ],
    "chapters": [

    ],
    "format": {
        "filename": "./2017/01/2017_01_29_21:25:03_0000.mov",
        "nb_streams": 4,
        "nb_programs": 0,
        "format_name": "mov,mp4,m4a,3gp,3g2,mj2",
        "format_long_name": "QuickTime / MOV",
        "start_time": "0:00:-0.000023",
        "duration": "0:00:39.443333",
        "size": "80646459",
        "bit_rate": "16356925",
        "probe_score": 100,
        "tags": {
            "major_brand": "qt  ",
            "minor_version": "0",
            "compatible_brands": "qt  ",
            "creation_time": "2017-01-29T21:25:03.000000Z",
            "com.apple.quicktime.make": "Apple",
            "com.apple.quicktime.model": "iPad mini 2",
            "com.apple.quicktime.software": "10.2",
            "com.apple.quicktime.creationdate": "2017-01-29T16:25:03-0500"
        }
    }
}
